<svg xmlns="http://www.w3.org/2000/svg" width="105" height="36" viewBox="0 0 105 36" fill="none">
	<path class="logo-svg" fill="white" fill-rule="evenodd" clip-rule="evenodd"
		d="M104.222 11.552L102.028 11.9905L99.7729 10.3462C99.7729 10.3462 99.3631 11.931 97.7491 11.7426C96.0089 11.5376 96.1048 10.3891 96.2381 9.28906L96.8671 5.17583L91.3112 5.18409L91.1438 6.44775C88.9602 4.76104 86.2709 5.05299 86.2709 5.05299C80.6302 5.5438 79.4712 10.074 79.4712 10.074L73.9516 13.2348C73.9516 13.2348 73.685 7.93892 67.6526 8.58397C67.6526 8.58397 63.4914 9.10838 60.5085 12.0103L60.1891 13.4293L53.4896 17.8444C53.4896 17.8444 53.3866 14.2203 49.2116 12.4934C48.7528 12.3028 38.2381 22.7272 36.678 24.0145C36.678 24.0145 34.8002 25.4363 32.7956 24.3494L38.5564 19.2155C38.5564 19.2155 35.7713 13.1897 29.6552 15.7765C29.6552 15.7765 25.6747 17.326 25.4395 21.1903L14.6863 29.1749C14.6863 29.1749 13.9762 17.6444 25.6643 16.8159C25.6643 16.8159 23.1369 14.342 21.7719 11.2121C21.7218 11.0942 21.7835 11.0292 21.7835 11.0292C21.7835 11.0292 16.4154 12.6575 13.6573 18.2724C13.6182 18.3556 11.8775 21.5753 11.5216 27.1863L11.5161 27.2811C11.5161 27.2811 1.89598 16.6953 10.8744 6.82784C10.93 6.76945 10.881 6.73585 10.881 6.73585C10.881 6.73585 7.46898 3.74857 6.59863 0C6.59918 0 -0.665491 3.87857 0.0495179 12.9743C0.765629 22.0711 10.275 30.3537 10.3461 30.6044L4.57864 31.8262C4.57864 31.8262 4.08398 34.5298 2.51349 36L58.0033 23.9253L57.6022 26.3722L62.4321 25.3206L62.9648 22.7977L104.675 13.7719L104.222 11.5514L104.222 11.552ZM18.7967 28.8708L25.8279 23.7055C27.2116 26.3028 30.6583 26.4862 30.6583 26.4862L18.7967 28.8708ZM31.6091 20.1618C33.2941 19.1819 34.0923 20.3199 34.0923 20.3199L31.1634 22.9359C29.7439 21.3792 31.5281 20.2092 31.6085 20.1613L31.6091 20.1618ZM45.316 22.0221C44.3112 22.3427 44.4462 22.7993 44.4462 22.7993L44.6296 23.6432L38.465 24.8865L45.7688 18.739C45.7688 18.739 45.7837 18.8684 45.8492 18.929C47.6483 20.6141 45.3165 22.0221 45.3165 22.0221H45.316ZM58.6852 20.7325L53.3386 21.8954C53.9826 21.0201 53.7567 20.4301 53.7567 20.4301L59.4421 16.9812L58.6852 20.7331V20.7325ZM63.5135 19.8726L63.8016 18.7357C64.1029 19.2111 65.0592 19.5025 65.0592 19.5025L63.5135 19.8726ZM67.9853 16.3703C66.4253 17.1338 65.4475 15.7352 65.4134 15.6801C64.158 13.6667 65.9317 12.711 65.9317 12.711C67.4317 12.1722 68.1577 13.4061 68.2343 13.5053C69.4886 15.1656 67.9903 16.367 67.9847 16.3697L67.9853 16.3703ZM72.7237 17.9733C73.5919 17.3822 73.7291 16.1742 73.7291 16.1742C73.7291 16.1742 79.4023 12.7413 79.415 12.8333C79.816 15.3501 81.4691 16.1703 81.4691 16.1703L72.7243 17.9733H72.7237ZM86.6146 12.9297C85.1472 13.6496 84.2261 12.3309 84.1914 12.2796C83.0093 10.3814 84.6812 9.48241 84.6812 9.48241C86.0913 8.97177 86.7777 10.1363 86.8482 10.2294C88.0331 11.7932 86.6213 12.9264 86.6141 12.9291L86.6146 12.9297ZM90.7868 14.2897C91.3845 13.589 91.5343 12.8856 91.5343 12.8856C91.9651 13.4667 93.0382 13.7989 93.0382 13.7989L90.7868 14.2897Z" />
</svg>